<?xml version="1.0" standalone="no"?>
<!DOCTYPE svg PUBLIC "-//W3C//DTD SVG 20010904//EN"
 "http://www.w3.org/TR/2001/REC-SVG-20010904/DTD/svg10.dtd">
<svg version="1.0" xmlns="http://www.w3.org/2000/svg"
 width="700.000000pt" height="700.000000pt" viewBox="0 0 700.000000 700.000000"
 preserveAspectRatio="xMidYMid meet">
<metadata>
Created by potrace 1.14, written by Peter Selinger 2001-2017
</metadata>
<g transform="translate(0.000000,700.000000) scale(0.100000,-0.100000)"
fill="#000000" stroke="none">
<path d="M989 6438 c-1 -7 -2 -572 -3 -1255 -1 -683 -5 -1245 -9 -1249 -4 -5
-19 -10 -34 -12 -91 -12 -201 -121 -219 -218 -9 -51 -9 -2697 0 -2749 18 -97
110 -195 208 -220 44 -11 492 -13 2568 -12 l2515 2 48 24 c92 45 150 124 164
223 5 29 8 654 7 1388 l-1 1335 -22 49 c-40 92 -92 142 -180 172 l-36 12 0
1244 0 1243 -438 3 -437 3 0 -1246 0 -1245 -1230 0 -1230 0 -1 73 c0 39 0 147
0 238 l1 167 -83 2 c-45 1 -90 2 -99 2 -10 -1 -18 4 -18 9 0 6 4 7 10 4 6 -4
7 1 3 12 -6 17 -5 17 14 1 11 -10 28 -18 39 -17 15 1 14 2 -5 8 -13 3 -25 14
-27 24 -2 13 2 16 16 12 10 -3 25 1 34 10 19 20 21 32 3 16 -8 -6 -18 -7 -22
-3 -5 4 -5 1 -1 -5 4 -7 2 -13 -4 -13 -6 0 -10 7 -8 17 3 18 58 31 58 13 0 -5
5 -10 11 -10 8 0 8 5 -1 15 -15 18 0 20 20 3 12 -11 12 -10 1 5 -9 12 -21 15
-35 11 -19 -6 -19 -5 -7 10 8 9 20 15 28 12 8 -3 12 -2 8 3 -3 5 1 11 7 14 7
2 -2 4 -19 5 -18 0 -33 -4 -33 -9 0 -6 -4 -8 -9 -4 -5 3 -13 0 -17 -6 -5 -8
-3 -9 6 -4 9 6 11 4 5 -5 -5 -9 -4 -11 3 -6 8 5 10 1 5 -9 -5 -13 -7 -14 -14
-3 -7 10 -9 10 -9 -2 0 -13 -1 -13 -10 0 -5 9 -5 19 0 26 10 11 4 24 -11 24
-9 0 -5 -42 5 -58 4 -8 2 -10 -7 -6 -8 3 -18 1 -22 -5 -3 -6 1 -11 10 -11 9 0
13 -5 10 -10 -5 -8 -11 -7 -20 0 -11 10 -13 8 -10 -9 2 -12 0 -19 -5 -16 -6 3
-7 -1 -4 -9 3 -9 1 -16 -6 -16 -6 0 -8 -5 -4 -12 4 -7 3 -8 -4 -4 -7 4 -12 1
-12 -6 0 -8 -3 -9 -8 -3 -8 12 -41 13 -59 2 -6 -4 -14 -3 -18 3 -4 7 -13 6
-27 -1 -15 -8 -19 -8 -14 0 4 6 3 11 -3 11 -5 0 -13 -5 -16 -10 -4 -6 -11 -8
-16 -4 -17 10 -59 12 -65 2 -3 -4 -10 -5 -16 -2 -6 4 -5 10 3 15 8 5 9 9 3 9
-6 0 -17 -7 -24 -15 -10 -12 -16 -13 -26 -4 -8 6 -14 7 -14 2 0 -5 -12 -8 -28
-5 l-27 4 0 -239 0 -238 -107 -3 -108 -3 0 1261 0 1260 -435 0 c-341 0 -435
-3 -436 -12z"/>
<path d="M2370 4980 c4 -27 0 -41 -9 -35 -5 3 -13 0 -16 -6 -4 -5 -13 -8 -21
-5 -12 5 -12 2 -1 -22 8 -15 13 -37 12 -50 -1 -15 3 -21 12 -18 21 8 15 -2 -8
-15 -12 -6 -19 -7 -15 -1 3 5 -1 13 -10 16 -17 7 -44 -9 -44 -26 0 -6 7 -5 15
2 9 7 18 10 21 7 10 -10 -32 -26 -45 -18 -9 6 -10 10 -2 15 6 4 9 11 6 16 -5
7 24 38 32 33 11 -8 21 -1 19 14 -4 25 -23 27 -31 3 -3 -11 -11 -17 -17 -14
-7 4 -8 2 -4 -4 4 -7 3 -12 -3 -12 -5 0 -11 -10 -13 -22 -2 -13 -9 -22 -16
-20 -8 1 -11 -2 -8 -7 4 -5 2 -13 -4 -16 -6 -4 -8 -15 -5 -24 3 -12 0 -18 -10
-18 -8 0 -15 4 -15 9 0 4 -5 8 -11 8 -8 0 -8 -4 -2 -12 11 -14 13 -48 3 -48
-3 0 -11 5 -18 10 -9 7 -9 7 -2 -2 13 -15 13 -31 0 -23 -6 3 -7 -1 -3 -10 4
-12 8 -13 13 -5 4 7 10 8 13 3 3 -5 3 -13 -1 -19 -10 -14 -38 -10 -34 5 1 7
-2 10 -8 6 -14 -9 12 -46 28 -40 8 3 10 0 6 -8 -5 -8 -2 -8 9 2 9 7 14 17 11
22 -3 5 0 9 7 9 8 0 8 4 -1 15 -10 12 -10 15 1 15 9 0 10 3 4 8 -14 10 -17 32
-4 32 5 0 8 4 5 9 -3 5 2 8 12 7 9 0 16 5 14 12 -1 8 3 12 10 9 7 -2 22 0 33
5 19 9 19 8 2 -6 -10 -8 -18 -18 -18 -23 -1 -4 -3 -10 -6 -13 -4 -3 -3 1 1 8
4 6 3 12 -2 12 -17 0 -22 -13 -10 -29 10 -13 10 -14 -2 -3 -19 16 -30 15 -30
-4 0 -9 5 -12 13 -8 8 5 8 2 -2 -9 -11 -14 -11 -20 0 -34 10 -11 10 -14 2 -9
-8 4 -13 1 -13 -8 0 -9 -5 -16 -11 -16 -5 0 -7 -5 -4 -10 4 -6 10 -8 14 -5 5
2 17 -2 27 -10 18 -14 18 -16 2 -29 -25 -18 -22 -29 3 -16 11 7 23 9 26 7 2
-3 -5 -8 -16 -12 -12 -3 -21 -11 -21 -16 0 -6 4 -8 9 -5 5 3 11 -1 15 -9 3 -8
-2 -19 -13 -24 -13 -7 -18 -6 -18 4 0 7 7 11 16 8 9 -2 5 2 -9 10 -14 9 -28
13 -31 11 -4 -2 -10 3 -13 11 -4 13 -2 13 14 5 16 -8 18 -8 14 4 -6 16 -40 14
-37 -2 2 -6 -4 -9 -13 -5 -13 5 -13 7 1 23 11 12 13 20 5 25 -5 3 -8 11 -5 16
4 5 1 9 -4 9 -6 0 -11 -7 -11 -15 0 -8 5 -15 11 -15 5 0 8 -4 4 -10 -3 -5 -13
-7 -23 -4 -13 5 -14 4 -4 -4 8 -5 13 -12 13 -16 -3 -19 0 -27 7 -22 4 2 13 -4
20 -15 15 -23 9 -24 -24 -3 -13 9 -27 14 -31 10 -3 -3 -1 -6 6 -6 7 0 10 -4 6
-9 -3 -5 0 -13 6 -17 8 -4 9 -3 5 4 -4 7 -4 12 1 12 11 -1 49 -30 38 -30 -5 0
-4 -5 3 -12 8 -8 15 -8 27 2 18 15 21 0 3 -18 -9 -9 -9 -15 1 -24 10 -11 15
-9 27 6 8 11 15 17 15 13 1 -4 3 -11 4 -17 1 -5 3 -13 4 -16 0 -4 7 -2 14 4
13 10 46 10 64 -1 6 -4 14 -3 17 2 3 5 19 7 36 6 16 -1 35 4 41 11 8 10 8 14
0 14 -6 0 -11 -6 -11 -12 0 -9 -4 -8 -10 2 -9 13 -10 13 -10 0 0 -13 -1 -13
-10 0 -9 13 -10 13 -10 0 0 -13 -1 -13 -10 0 -9 13 -10 13 -10 0 0 -13 -1 -13
-10 0 -9 13 -10 13 -10 0 0 -11 -2 -12 -8 -3 -8 13 -52 14 -52 0 0 -4 -5 -5
-11 -1 -8 4 -7 9 2 15 11 7 11 9 1 9 -7 0 -11 4 -7 9 3 5 0 13 -6 17 -8 4 -9
3 -5 -4 9 -14 -4 -15 -24 -2 -13 8 -13 10 2 10 9 0 23 9 32 21 12 17 17 19 33
9 14 -9 15 -10 1 -6 -9 2 -22 -3 -30 -11 -11 -15 -11 -16 5 -10 12 5 30 -2 54
-20 l36 -27 -7 24 c-4 14 -4 20 1 14 6 -9 11 -8 21 2 12 13 8 18 -10 15 -8 -1
-4 26 6 36 4 4 6 3 4 -2 -1 -6 7 -21 20 -35 13 -14 18 -26 12 -28 -5 -2 -8 -8
-4 -13 9 -15 44 9 38 26 -4 8 -10 13 -15 10 -4 -3 -13 4 -19 15 -7 13 -7 20 0
20 5 0 10 -6 10 -13 0 -16 30 -19 47 -5 7 6 10 15 6 21 -4 6 -9 3 -14 -9 -6
-16 -8 -16 -8 -2 -1 9 7 22 17 27 13 8 14 10 2 11 -9 0 -5 6 10 17 14 10 27
18 30 18 12 1 30 17 30 28 0 8 -3 8 -12 -1 -17 -17 -26 -15 -39 9 -6 12 -7 19
-1 15 21 -13 20 24 -1 39 -12 8 -16 15 -10 15 7 0 15 -5 18 -10 4 -6 10 -8 15
-5 5 3 12 1 15 -5 4 -6 16 -8 28 -4 17 6 20 4 12 -7 -6 -8 -10 -23 -10 -34 0
-11 -6 -25 -14 -31 -11 -9 -12 -12 -1 -19 8 -5 11 -4 7 2 -4 6 0 14 9 17 12 4
15 2 10 -9 -3 -8 -1 -15 4 -15 6 0 10 7 10 15 0 8 5 15 10 15 6 0 10 5 10 10
0 6 -6 9 -12 8 -7 -2 -12 3 -11 10 2 6 -2 12 -8 12 -8 0 -8 5 1 15 12 15 10
17 -19 19 -8 1 -16 7 -19 15 -3 9 0 11 9 6 11 -6 11 -5 2 5 -6 7 -9 19 -6 26
3 8 0 14 -7 14 -7 0 -10 8 -7 20 3 11 1 18 -3 15 -5 -3 -11 -1 -15 5 -4 6 -11
8 -16 5 -5 -4 -9 3 -9 14 0 12 -7 21 -16 21 -11 0 -14 6 -9 21 6 18 5 19 -14
7 -20 -12 -20 -13 12 -42 17 -17 35 -29 40 -28 7 2 10 -13 5 -23 -2 -2 6 -11
17 -20 18 -15 18 -16 2 -11 -12 4 -17 2 -14 -6 2 -7 11 -12 18 -10 12 3 12 1
0 -10 -11 -10 -14 -10 -18 0 -3 6 -9 9 -15 6 -7 -5 -7 -1 0 11 7 14 5 27 -12
52 -22 35 -31 39 -41 22 -5 -7 -14 -4 -26 7 -14 12 -19 13 -19 4 0 -7 -2 -11
-5 -8 -3 3 -3 13 1 22 6 15 8 15 21 -4 8 -11 19 -18 24 -15 5 4 3 13 -5 21 -9
8 -12 22 -9 30 5 14 3 14 -16 3 -11 -8 -21 -17 -21 -21 0 -5 -4 -8 -10 -8 -18
0 -10 18 10 25 11 4 18 11 15 16 -4 5 -14 5 -25 -1 -24 -13 -30 -13 -30 1 0 5
5 7 10 4 17 -10 11 6 -8 23 -10 10 -16 16 -13 15 2 -2 10 2 18 8 9 9 13 8 13
0 0 -6 -6 -11 -12 -11 -9 0 -8 -3 2 -9 8 -6 18 -7 24 -4 5 4 6 0 1 -8 -7 -11
-5 -11 10 1 15 12 17 12 10 1 -6 -10 -4 -12 5 -6 8 5 11 4 7 -1 -3 -6 3 -11
14 -11 25 -2 24 18 -1 40 -11 9 -20 13 -20 9 0 -14 -29 -10 -34 5 -4 9 0 13
11 11 9 -2 18 4 20 12 4 13 3 13 -6 0 -6 -8 -11 -13 -12 -10 -6 34 -8 43 -14
48 -4 4 -6 0 -5 -8z m70 -92 c0 -6 -6 -5 -15 2 -8 7 -15 14 -15 16 0 2 7 1 15
-2 8 -4 15 -11 15 -16z m-137 -3 c-3 -9 -8 -14 -10 -11 -3 3 -2 9 2 15 9 16
15 13 8 -4z m67 -69 c0 -3 -4 -8 -10 -11 -5 -3 -10 -1 -10 4 0 6 5 11 10 11 6
0 10 -2 10 -4z m-106 -27 c5 -4 -2 -6 -17 -6 -19 2 -23 5 -15 15 6 7 14 9 17
5 3 -4 10 -11 15 -14z m56 11 c-8 -5 -19 -10 -25 -10 -5 0 -3 5 5 10 8 5 20
10 25 10 6 0 3 -5 -5 -10z m106 -22 c4 -7 4 -10 -1 -6 -4 4 -15 2 -24 -5 -14
-11 -14 -10 -2 6 16 20 18 21 27 5z m64 -40 c0 -5 -8 -8 -17 -8 -15 0 -16 2
-3 10 13 9 7 14 -12 11 -4 0 -4 7 -1 16 5 12 3 14 -7 8 -9 -6 -11 -4 -5 5 6
10 12 7 26 -11 10 -13 19 -27 19 -31z m-162 17 c-3 -3 -9 2 -12 12 -6 14 -5
15 5 6 7 -7 10 -15 7 -18z m62 -10 c0 -7 -30 -13 -34 -7 -3 4 4 9 15 9 10 1
19 0 19 -2z m-107 -30 c4 -8 3 -16 -1 -19 -4 -3 -9 4 -9 15 -2 23 3 25 10 4z
m167 9 c0 -8 -19 -13 -24 -6 -3 5 1 9 9 9 8 0 15 -2 15 -3z m14 -30 c3 -8 2
-12 -4 -9 -6 3 -10 10 -10 16 0 14 7 11 14 -7z m-216 -8 c-7 -8 -15 -12 -17
-11 -5 6 10 25 20 25 5 0 4 -6 -3 -14z m55 -31 c4 -8 3 -16 -1 -19 -4 -3 -9 4
-9 15 -2 23 3 25 10 4z m-58 -14 c-3 -6 -11 -11 -16 -11 -5 0 -4 6 3 14 14 16
24 13 13 -3z m230 0 c-3 -2 -16 -6 -28 -8 -15 -2 -18 0 -9 5 14 9 45 12 37 3z
m-192 -41 c-7 -27 -13 -25 -11 4 1 14 5 23 9 20 4 -2 5 -13 2 -24z m184 0 c1
-11 -2 -22 -8 -25 -5 -4 -6 2 -2 12 6 16 4 16 -18 -2 l-24 -20 24 28 c14 15
25 27 26 27 0 0 1 -9 2 -20z m33 6 c0 -3 -4 -8 -10 -11 -5 -3 -10 -1 -10 4 0
6 5 11 10 11 6 0 10 -2 10 -4z m-195 -36 c-3 -5 -12 -10 -18 -10 -7 0 -6 4 3
10 19 12 23 12 15 0z m105 6 c0 -2 -8 -10 -17 -17 -16 -13 -17 -12 -4 4 13 16
21 21 21 13z m-40 -18 c0 -6 -3 -8 -7 -5 -3 4 -11 2 -18 -3 -8 -7 -12 -6 -12
3 0 7 9 14 19 14 10 1 18 -3 18 -9z m82 -5 c-6 -2 -10 -9 -7 -14 4 -5 -1 -6
-10 -2 -13 5 -14 7 -3 14 7 5 18 8 23 8 6 0 4 -3 -3 -6z m-172 -7 c0 -3 -4 -8
-10 -11 -5 -3 -10 -1 -10 4 0 6 5 11 10 11 6 0 10 -2 10 -4z m-69 -28 c5 -31
2 -42 -11 -45 -13 -4 -13 -3 0 6 13 10 13 11 0 12 -11 0 -12 2 -2 6 10 4 9 8
-4 17 -15 12 -15 13 0 13 9 0 17 -4 17 -9z m139 -29 c0 -6 -4 -7 -10 -4 -5 3
-10 11 -10 16 0 6 5 7 10 4 6 -3 10 -11 10 -16z m-108 -36 c-6 -3 -10 -9 -6
-14 3 -5 0 -9 -5 -9 -6 0 -11 4 -11 8 0 12 23 32 29 25 3 -3 0 -8 -7 -10z"/>
<path d="M2315 4860 c-3 -5 -1 -10 4 -10 6 0 11 5 11 10 0 6 -2 10 -4 10 -3 0
-8 -4 -11 -10z"/>
<path d="M2523 4667 c0 -7 -4 -20 -8 -29 -8 -19 9 -25 20 -8 4 6 11 7 17 4 6
-4 6 1 -1 14 -14 26 -28 35 -28 19z"/>
<path d="M2177 4613 c-7 -10 14 -37 31 -40 6 -2 12 2 12 8 0 5 5 7 10 4 6 -3
10 -1 10 4 0 6 -4 12 -10 12 -20 3 -25 4 -37 12 -6 4 -14 4 -16 0z"/>
<path d="M2512 4578 c2 -5 8 -9 13 -9 5 0 11 4 13 9 1 5 -4 9 -13 9 -9 0 -14
-4 -13 -9z"/>
<path d="M2290 4477 c0 -19 10 -27 26 -20 11 4 12 9 3 19 -15 18 -29 18 -29 1z"/>
<path d="M2392 4478 c-16 -16 -15 -25 1 -25 7 0 14 9 14 19 2 21 1 22 -15 6z"/>
<path d="M2156 4468 c5 -8 1 -9 -12 -4 -14 5 -16 4 -7 -5 6 -6 16 -8 22 -5 14
9 14 26 0 26 -5 0 -7 -5 -3 -12z"/>
<path d="M2542 4451 c-11 -6 -10 -10 4 -15 9 -3 19 -4 22 -1 3 3 0 5 -7 5 -7
0 -9 5 -6 10 7 12 4 12 -13 1z"/>
</g>
</svg>
